<mxfile host="65bd71144e">
    <diagram id="KO8dMtgM68VasAzRA6IV" name="第 1 页">
        <mxGraphModel dx="723" dy="874" grid="1" gridSize="10" guides="1" tooltips="1" connect="1" arrows="1" fold="1" page="1" pageScale="1" pageWidth="827" pageHeight="1169" math="0" shadow="0">
            <root>
                <mxCell id="0"/>
                <mxCell id="1" parent="0"/>
                <mxCell id="3" value="&lt;div style=&quot;text-align: left;&quot;&gt;&lt;span style=&quot;font-size: 24px;&quot;&gt;&amp;nbsp; &amp;nbsp; 1、本质上也是基于响应式系统，不同的是，利用了对象的get和set方法，在get方法内调用track建立依赖联系，写死value(key)。&lt;/span&gt;&lt;/div&gt;&lt;div style=&quot;text-align: left;&quot;&gt;&lt;span style=&quot;font-size: 24px;&quot;&gt;&amp;nbsp; &amp;nbsp; 2、在set方法内进行依赖执行，同时数据发生改变，将最新的值赋值给传进来的数据（raw），最后将对象返回，通过.value形式使用。&lt;br&gt;&lt;/span&gt;&lt;/div&gt;" style="text;strokeColor=none;align=center;fillColor=none;html=1;verticalAlign=middle;whiteSpace=wrap;rounded=0;fontSize=14;fontColor=#FF3333;labelBackgroundColor=#FFFF00;" vertex="1" parent="1">
                    <mxGeometry x="50" y="480" width="540" height="180" as="geometry"/>
                </mxCell>
                <mxCell id="4" value="" style="shape=image;verticalLabelPosition=bottom;labelBackgroundColor=default;verticalAlign=top;aspect=fixed;imageAspect=0;image=data:image/png,iVBORw0KGgoAAAANSUhEUgAAAfQAAAGICAYAAAC3NhIwAAAgAElEQVR4nOzdeXyU5b3//1dbRcjMBCarGJKQYdgEA0FkE00gCSQeam0hreVLhXDK9n1gD4IsYuOv36bigiLfA48D1B6jPRy6gLb1cL6grFEOewmJIiBDQjYkCVnIzAQaqf39cc9yz2SSzCSTbfJ5/qNzzz33fc2IvO/rc13XfX8r7Ymn/nH9RiWNjY0IIYQQomf6dlc3QAghhBDtJ4EuhBBCBAAJdCGEECIASKALIYQQAUACXQghhAgAEuhCCCFEAJBAF0IIIQKABLoQQggRACTQhRBCiAAggS6EEEIEAAl0IYQQIgBIoAshhBABQAJdCCGECAAS6EIIIUQAkEAXQgghAoAEuhBCCBEAJNCFEEKIAHBPxx16HKFZ84jSObdU71tJ+ZGOO2P7Odvc/dvaRnPGsCI5wvnaYmLX6iIqm+z4NTnv5PPg5TFMfO3eTmygm/lfcTHxPl5fGEKOP485qxyAq3vHM+s9fx1YCCG6TocFunb5PKK4yKU1b9PYUSfxmi2oa49SsPXDrm5M15kYR2ZyBKWHDvD+npZ3zd6YzyQMvN6VYQ7wXhgnE/NZ8w7gj1B/vIZTs8olyIUQAaeDAv1J+sdA9b7uEOa+OEd19jmqu7oZHSRi3ED6W0z8dythnrn2KnMGR7Enw4+94ja7l8yFI9i7+xJL1+rIaecFRubkWoLNBrZLmAshAkzHjKEPjaRfhxxYtEd4iKb1nR6vYen4Wq7uHUhWxzfJS1pm7Y0ieHwJOY93dVuEEKJ76sAx9OZ4Ln9rl2/CoL/IpWylV69dvgkDRym4MJT49CjbXrcpf/tFqq+4HXLaKtU+0HBuJ6bfn4OhizAuGkmQ/Q1dEvGvJzn2c46Tu4/3N3MeoM/TLzNinOpypcTD9/C23S3SMG3jFAYXHienyqga97aS/+5xjpxS7eo+Ll6Wz+aXm46Ke6PVHuxoA3+YDnv/tRCeGsesGNv2+utsefcGxxw79mXdggdJCHb9uDX/CxbmwroFDzKs6AsW5t5xO0Ffz+/ZSu+TvmuBT7Rt+m5CCBHI/BjoTSfBBaVvIjTd9sLsDGuvxSQRr7/IpTVv0mg//tOLMKuOYw9Y9SS2Pk+vInToOaqvvI1pjaptzY6hq0rt01YRnx7isTna5ZswxJRTuOZNLAA8SdTrScRnRbp+Ny/a7a3+8VNYQSUHlh3gAjDqxVRS58Rx4ZQykS1i2RTmxlsd79svBFa8aAt197DHyNxtRscr1/H0r3l8eC1URzZbap8a2hfq7zB6wTjCi77gR3++AxH3887TD/Dd0Tc49jmO15qSQn70bp3yQdu2quo7wAD0wdj+3V1f9MEeNnMvn1zWM2l4I5nQDYYChBCie/FjoKtC0dYzvt3emeIuFwHnMF+ZDeOC6QPKtqGLiBnXj4ZzO13O0/j7N/0/Dj50EffHQPU+e5gDfEj5vqGEpg9GNxRnD7y1dvvCbRZ6VY0VBgUTDlQSwWPxGkoPHbeFOYCVI6cqGZM8kFFUcmFPPpttgT3qxVRSBzQ3qx3gb4Tr4Gpu8z3gOH1fCO5LeL6n3jVAX9Y9YQvzP9c5N0cEoeEOX3o48U+eGscsbPtH9CUcz2GfcyOINeNrefzxEHI+abaJLVAuWOovx8gFgRAi4HRByd2PBgUTxG3K/3quk85Vzg33C5QjV6hOT6LvIMCnkrqX6qwu4Vu57Tib7S8maggG+iensiLZ/YNWIibChVPu21vweKMSps3u0JeoAUD9dd5Rh3nlDRb+6w3l3yMGMCwYrp2tc/nk1NC+wB3KHV/mDrWVQMT9jKYO64C+TAWORQShoY4jn/vQ7lYpS/Am6fSc3DKeiW26GBBCiO6tZwe6ANzL5u3wSR+qnm1pB6Ucbs2vU42Vu/EYyAP47pi+UHKd/wBbL/wOn1fCT54K4vPjDUx7Oog4IM44AEoKlf08CqLM50C+l8yF41GC/SwXvzuCkatlHF4IEVh69p3iyuppoJ/SO+6Uc0XRf5rb9mlDCeU2d8o6oQ3uTlmpB4LDvZi97pX7qDLDkNEWz2+3UA5vydTEBxgMWGvdPjfawLTa6/xH5R2q6EvU6PuZFgPXTHUej5N5fwOY76PQp7OrKePwhCrj8EIIEUi6INDP8bdaQB9JH9sWZbJZGw515W1ulEBo+suEDnVuVibFeThnzFDa3C+78ldqzRCavkp1jCeJSo+CklM+zmD3l0o+LbDSP34Ks+f443i2wBtsJtvT27Zx8NpWJ9APYPRo5d+mJj7Is3F3uFbvfpwBzJrely8v3gHuUFvfl4Tpytj7Wo/ldvuEvT4y/i2EEB50ScndsvUo1a8nMeL1TYCyzOzSzdmMGNrKBz0eayWXnn6ZEYs2YV8k1nBuJ6Yr7vvtpDxrHgbbOUG9bE2ZrR6q2j/KfjzHsjRl0t/flm9yOUbDuZ0U/L4TxvCbUbntOLuWTWGu+zh6G5eu5ZzQs3R8ITPWhpHldhOXnxgHQP11jrV02M8L2Wscx6zp4/jDdGzL2e7w3Z8NaNqzL7nOq5UAdyivg4TgOvb+2XPvnPk3lTHwd6VULoQQnnwr7Ymn/nH9RiWNjT3rnm6i42Suvcqa8UHsyeguN5exsHf3JcLPtv++8plrr7JmuN6/94YXQohuoGePoYsOkfNaDCfN5czZ/ZXn0nun+pqcdy4xxGxgux/uK59zIwh0hcye74emCSFENyKBLjy4l8yFYzhpLmfG2q+7tinzbyoPifFXj/q9gbx+Vs+QWWe5uPsseyXYhRABQkruQgghRACQHroQQggRACTQhRBCiAAggS6EEEIEAAl0IYQQIgBIoAshhBABQAJdCCGECAAS6EIIIUQAkMenCg8m89LkZYzXANZ83jzxJrld3SQhhBAtkkD31bRVxKeHUP72i130hLWOt/ChZYwnnzcPSpALIURPISV34ebHxEdC4VUJcyGE6Ekk0IUQQogA0O1L7trlmzDE2F/d9lDqdn+Wuds+QxdhXDSY2rffh6fnEaWzbXc859xuHKFZqvcBzBe5lP02jU3aoXpeutt+3lnJ8Ox0OJBKSfifGDvW/ozvEi5n/TM1Xh9HCCGEUHTjQLcHbDmFa97EYt+2fBF9rtjCc+gijItGwrmdFPz+HAB9nn6ZEYs20XffSsqP2I/Vj6hF86jet5KCI9jGwZOImvahYx/t8nlEcZFLazwHs2XrSgrAr2PoIakHCLGc53zWam4zh6i1Sxi+eCUnfr2pfQcWQgjR63TbQO/z9GyidLcpf9se5gDnqN56zvFKO3MkQeaLXPq9c1vj79+nfOg8okY9SfkRZw+8Wh3wR65QnR5Fv8hxwDlgHPfpgdoKH3rZflC6TxXee7hduwT0A+kH3PbqAOH8Omk0MR7fa+D86VOsa/CxTREPYqCYP1f6+DkhhBBdqvsGelg/MF/E3GwvWAnhhit/dQvhc5ivzIahkfQBLwP6HNXHphGVnkT860ltKKG3ze3qEpfXNb9O5YRPR6hi8dEjre/mjYhsPoyPhYp9PHnwd/45phBCiE4jk+LsjrxJwZqVFLx9kQbdSEa8von411ehbf2TgaEyiycPPsOTFQ/yYcp2XtJ0dYOEEEL4otv20Btv3oaY4BZ62ef4W+08goY+TB/OqfYZh25ov7aXz6+8jWkNjvH5/tPA4qdOsP91QMm98gsKSSdEA1jb3UAhhBCdpPsG+u9PUT0uCUPWIlX5exyhyx/GvFV5bblQDukjiXl6HCbHpDjb2PvvP2zh6F4YFEwQt6ktc9teVk8DUegfHkf1lXMeP9p5/FhyF0II0aN120CHDylfU8adrHmMeN0+cUxZkuboeR95k4KyRRgXzSN+3DzbRvWseG+5L31znqvJTPYrb2Pat4r4dNU5O2nMXQghhGjOt9KeeOof129U0tgocSQAfszmlHQoeIYVMtNdCCF6DJkUJ9xco8YKhiGrSOzqpgghhPCaBLpwc4JfnthHoWYMq1J+y4eTJdiFEKInkJK7EEIIEQCkhy6EEEIEAAl0IYQQIgB0y0APDQvjnnu68Yo6IYQQopvploEuhBBCCN9IoAshhBABQAJdCCGECAAyUN3DRSybwtx456PRbhUcJ2db5z1V5e6cM5j5C/o9v1JtnUfjT/+Fb04/Qt8Cf51JOaa1P3DrDP1/87/lalQIIVQk0H01bRXx6SGe7/PeBSq3HWczABHM3jaG4E489zfTD2OOLUL35q/c3tlJn9NPUpt6BvBPqN+d8y9YOUP/NyXIhRDCE/m7UbRN/B+5lQCanT/0fFVY8EP655m5nfpH7rb7ZD/nbiz0Oy1hLoQQzZG/H0Ub/Jw7qXHcm/cOfSqa3+vbh99BcysO85yfd17ThBCil+olJXdPj0cF90ekapdvwhDjfLd630rKj3h+L2rRJqLsL3x6fKqGaRunMKYun80vuz7ObNSLqaQOquTAsnwuqPfVOvdpyxj5qBdTSR1gYtfqIuxnVMberapzeTqflfx3j3PklNsB4+O5TRG6wztbObNSeremTqcx8lcthr8QQoj26QWBbgvzkqMUbP0QgD5Pv8yIcajCfByhWfOIqj1KwRplH4YuwrhoE1EooW7ZupIC8MMYupULhVbGxBuZNrFSFZYRjBgEtwpMjoAd9eIY2HOAzfZ95oxhRfIUZs85wPt72vRjtMA2Bl9wnM32C4Y5Y1ixYArgGup3h8XBrTPelXcKCuiX+j2+iQQk0IUQosMEfsl9aCT9gOoLHzo2Nf71Gg30o+8g24Zp04jSlVO41bkPV97mRgmEjnrS702q3GaiFA2DxzlnpzNnINFYuXbO2fu+8LJb73jPV5QCweGqz/lJxDIj0RYT/63u/e8xkW9xayfz+GYA3Ft43Ms/PNf49i24PawdZXdbReAev82YF0KIwBP4PfQrFdxmJKGjnqT8iK2H/vBggijnhq2c3icyBOiH4fVNTT9vjqQPeFlO91Yll8og1RBBBEoZfNTwCCjLdw3wiXFkLjDS3+3Tt/zaFkV4iAa0RuZuMzZ9M0QD2IN+MN+4N6ijxP+R2tQ4KP4L+iYz6YUQQqgFfqBTxh0zEJNE/OtJtm23KX/7TSwu+5VTuMZ9W8e5cNDEhAUDGTWxiMpTSrm99JBqTN0e5mXqsfYOXppmcR1n90zpcfvq3pprvn+o4IfoC1CCfdVhNDunyzi8EEI0I/AD3V5ObyGsGytqgBDuGwqWzlpbfqqSa3OMSjk7eiDRFhO71OPi0cH0x0r+wZbj1V+qaqwwKJhwaCXQd/Ltun/ha8MUvjm804uyu9Kjv+dmaxPoWiDj8EII0arAH0MH7GHdrCNHKDf3I2rRKrQt7AZAWT0N9EP/8Lh2tkmZHNffEMG04RHcKqx0DdLSem6hISTavkHpnUc3PVCrqmqsoFXCGpreXQ7s4/oRpG6MI6KV493zZRH0H8HdSC9OHh/Pbcx8W4JYCCE61LfSnnjqH9dvVNLY6N9R4vYIDQvjVl0dd++2/5Yk0HTJmV3DuZ2Yfn/O9so2013nuo966ZrDtFXEp0c5X/u0bE3NHtKVbsvHbO+6BW/poePUTJzC4ELn0jVlqZunY7ew/K0sn82XB7IiGbfzerpo8LR07efcWfU9bhe73/LVne12rXWt7dca5Xwc8OetZIUQIrAEfKArS9RqmpTcmy5dEz6J/yO1qWEtjmt/M/0wtxJuonuzmbvJeU0CXQghWhPwJfc+Yf1a2F7D3yTM26bgh+iKdVjnHabRU+k9/o/cStDR70B7wxwcS98m/BvftPtYQggRmAK+h95cKb3tZXKh1nlPW7OV+UGetiaEEB70gkAXQgghAp90coQQQogAIIEuhBBCBAAJdCGEECIABP6d4vygX2RCVzehTW5X5HV1E4QQQnQS6aELIYQQAUACXQghhAgAEuhCCCFEAJAx9B5uxNIwEoMbeP/1Bm56+6HHazj1bC1fbBlC5icd2bqWRJKzdSwxVLBv+XlYN5P0QVBy+CMyP/D/2TKWTGXpQ8774ls+O8b3dlhb+IR/zmf57Bjfy4vkL88MRWu5wvZ1hex27PU1Oe/kE547nlnvdVhThBC9hPTQfTUzmCW/0DN1TFc3pK0s7H22EM7GdGGYK+2otgCWeoqB4tqOC1eA3TuOkbz8I5KXn6ekQ89kO1+V8uSAmiornLZS43Gve8nMjWLIrLPsnd8JjRJCBDQJ9F7la3LeucSQayOY+Nq9Xd0YD6xUl3V1GzpQnVXVO7d5byCvn9UzZNZXZHdFm4QQAUMCvRfJXFvCJF0Ue1a3+tT3Tmfv0QYmWzWiGTmvxXDSXM6cjYH8GwghOpqMoXtpxNIwEu93vh71/TBGfd/2okE1hj0zmCWTIfcXVsLW6BkVZNvnRj07tqvvl9+HWb8IRvVUdcpP3GTvR24nHhPE3O8H4Xi2TJPjNL9/6SF4f4/9ja95fHgt9WdjyPL4wWQWb0iDj1dzMPwlMhPsZyzm4Pqt5DZ/xjay8vw61Zf94DzJLmPnGt54dSoJdedJftX1+azPr5tJ+iBl7P0N9b6q65S2jJE/v24m6QNcx7mVsXCL6lyezmcl77fHeP606mAu38ftuzahlN4vzqog53Gt56GQlGVs+acYKP6YZzcf8el7CSF6Bwl0L13afpNLYAvs73DhT7Ucy29u7z4k/qIP5su17Pjd320hG8ysmfbA/g5T1/TF9Iub7LV9IuzHemZP1jP1huq4M4NZMll1HNu2WTMbmwY/OMPcFvq31Tn4uJkHdVB1o+VSe/SMjWSa88hZv4tCjGS8sISUpcnkbj/k1e/kP1ZOFVlJeGgob0yoUIVlJKMGgeWzK46AfX5dAnzwEcn2fX4wlkPTp5Lzg46YYKdM5gv57BjJ9guGH4zl0DNTeQO3UPfFezquzionPA7o0rkNQoieSgK9g7j0tvPvUv99CA75DvB34O8ce73eZf+bX/wN8/AgBtwP5AP0YdbkPnCjnl32MAf4qN5xEeDCU/irxf2NYKL4uLXZ1CX7yXKEt4nKWkAfiQEobOWj/rZ7xxWe2DqWoQkaOG0Pz4HEYCUvz9n7fuPVY64f/OArSqZHEhKuAfw72S5jyVBiLFfYru79f3CFvAlTXdvps/uoMsOk0RbAw5DIwW08e7CNhxZC9AoS6B3i79TdUL9uZO8v3BaV2QLYnSPmx9xDMFBe5MVjbYOCmD2ZpuGvknl/AxDk8T01S3Wxy+vc7as7oNzurQoulEF6XCQZKGXw54dFQtl5157wBIOyLMzt0x0xIh2r14B2KEu3DmWp+5t6Lf6+gBBCCG9JoHcFVW/aEcC2cnmbNDTwfv49zJ4czNwf13oM9ZwbQaxpR5O7yhuHr/DYMw8wcUIhu08r5faSw6qxBHuYl6nH2m1l8Y5qVJP15P5Tf/O+DjiqEKI3kFnuXSAs5DtAI+ea6U0DSpkee5neCx/V8/7lv6MbrmfWTA/vF91HPeUk9LT1zqcruGLRKOXsHwwkxnKF/6ceFx8UjBYreYcrmj2EPxXXWkEbTKzfj/w3wr2Y4yCEEM2RQPfVjbuY+Q4xD3oZtB7crPk78B3C7DencZ/JDkAjJz0F9Mxgz4EN3PxdLbk3IGpyWNN9PtHxhRmGjPZHITqZxRs2kr3hJTKMfjhci5TJcdq4SN4YFomlqMK1Z1xWjwUNoYPsG+x3oPOde1i7310OlHH9EiJJf9VARhvO0az5Zoagp6qomfdTlrHlrVfY8n9+xDB/nlcIETCk5O6r/AZ23X8PSybrWfIL27YGH2+9+lE9uXFhJDqWvv2dC3+qZ8D3g112u/m7WnbMDGbJ5DCWTLZtvFHPju3NH/rS9lpludzkMDI1GnK22cd07+WTy3omjW9haZTXiqk1Q7ROR3xKMrtNHTsD3j45LkFbwb5X3caoTxeyM+EBlk6fyaHpyqaSw8eUSWqq3Z633VrW4aGpHNoK4Fz+tntHHhNfnUr61pmkA5SdJ/nwQMdxFRVkLj9PztaxbuPoHpauee1rchLL4dqI5v+7lNZQTwzBwUOYPBy+vNyW8wghAtm30p546h/Xb1TS2OjF5KtOEhoWxq26Ou7evdvVTQEC6Xnoyr3DJ1WPYGR7by6TtJzsGbFY8nbw2m5T+47Vy2Wuvcqa8UHsyRjYzD0CFDNXvMKsWDNnt2/gPQl0IYQbKbn3KveS+a6B+sGXuNiuu5IZyZgcCxRzUsK8feZ/xZrxtVzd23KYM/xHPB4LFJ+QMBdCeCQl997mkxAmAqeebVvp3ZBhu4uc4+Yzou2UUvvVvS09bW0aK9+aQRxQf/Y3PPufVzuxfUKInkRK7l4InJK7EEKIQCUldyGEECIASKALIYQQAUACXQghhAgAMinOCzIWLYQQoruTHroQQggRACTQhRBCiAAggS6EEEIEAAl0IYQQIgBIoHeZIF6dMI39o8K7uiFCCCECgAS6EEIIEQAk0IUQQogAIOvQfTA7diKLIm/w9ukGZiaNJsa23VJ0ijnFDc4dg2LZM8GA4wGlDYW8fbqY9z29FzSa/UnOj5Z8foTFN5371dhfAxDOr5NGE6I6nzdtem7UNGbyOWkVkewfbS/xN3D+9CnWqZrdOiMZLyzBYNrBa1VpZM+ItW03U/DOL1E/eM3xEBc7cx45rygPczFkvESm0eR47SJpOdkz4OD6reQ6NtofUFLC3ue28ZEvTRZCiF5CAt1XQQYWJSnBm3YTCBvN/tEP8WqVLRzDRrN/tIbzp484wvK5UdNYNAE4Xcz7DcXMOVqMMoY+kbHWz0m7UNWxbQIIH81+TSFvH/2c9+3nHh3LbPuFhg+0CUvIppiD61eTCyQu3UhKxlz+ag/opOVksIus9faET2bxhjQyl1aQtf2QskkXQjQ0CXRDeAiYTZS26YcQQojeS0ruPmvg/GlVr7nBjIUgQoIAgnjVEI6l6DOXnu9bRYVYgu7nkaCuaJN9m6pKQANnKhogSOfo0fvEnEeOqgddWm12BDQAR7fymstz0g9xuQTQR2IACqtqVO8ls3jDRhbbqhTRoTqorXAL+iNseu4FnpXeuRBCNEt66D6zUqEuUzt63AAaQoJAGzeR/XFNPxkSBPhU4vZHmzqAW+AW7v4lWbvVOyil+Xid2+fMtn+W1WDBSIQRGDRSuRAYkQxHld67pboD2y6EEAFKAr0DNBlT71XsYV7sMg6euHQjKXrbC1MFtSSgH6SU2Es/3g8zRpJIMRF6oLqLmi6EED2YlNz9ykpNA2i1mq5uSBeKRa8DS95+1aQ2d8XUmgGMPGys4fLRQ1wuiWV4kvLZ2ipTs58UQgjhmQS6XzWwrrAKwkezJ7a1AfMGKqxAeCTPeXy7gRogRGM/jjLDvU1j3p1KCWttaKxjS+LSjaS4NNxEZS3oJ88lvvYiuUDupWKiJz+KHjO1Ze7HnMbKt15hy1vrmT+847+BEEL0RFJy97ebn5P2+Wj2j3YbR3eZlKZ468IpIidMZGbSNGbatjmWrVHF4s+rVMdRlpnVjJ6IsZO+StuY2L07D8PCNLI3pCmbSvaTk/comaqGl1abSYnRUXrCNuv96EVKZ6QRTTGVTTroJVTXQ1ywjmHjh8Dlq53xRYQQokf5VtoTT/3j+o1KGhsbu7otDqFhYdyqq+Pu3btd3RTRXaQsY8s/xVB/9je8+J8S6EII4U5K7qIHGML8x2KAEj6RMBdCCI+k5C66tZkrXmFWLFB/ni3P/YEvu7pBQgjRTUmgi27to80vyM1khBDCC1JyF0IIIQKABLoQQggRACTQhRBCiAAggS6EEEIEAAl0IYQQIgBIoAshhBABQAJdCCGECAC9Yh363TlnMMcCFKF784e940sLIYToVXpFD/2ePY+gf/MRdMVxmH/6b3zT1Q0SQggh/KxXBLrdPZ+e4d7+I7gb2dUtEUIIIfyrVwW6EEIIEagk0IUQQogAIIEuhBBCBIDeFegVx+lzS4f1sZ93dUuEEEIIv+pdgc5O+vzmEfrXTKd21Rks0+d1dYOEEEIIv+hlS7J/zp1V3+Nu3v9F/+bOrm6MEEII4Te9q4ce+QB3MdPngoS5EEKIwNLLeuitS1y6kZQYsOTt4LXdpq5ujhBCCOGV3tVD90JptRkAbUIaiV3cFiGEEMJbEuhuCnf/D6UA5hrln0IIIUQP0KsC/ZtRI/iam3y7ovl9DBmPEg2UnthFYae1TAghhGifXjGG7nzamhnNzmaetmacy9qFCWgxU/DOamT4XAghRE/yrbQnnvrH9RuVNDY2dnVbHELDwrhVV8fdu3e7uilCCCFEj9CrSu5CCCFEoJJAF0IIIQKABLoQQggRACTQhRBCiAAggS6EEEIEAAl0IYQQIgBIoAshhBABoFfcWCaQRSybwtx4jeP1rYLj5Gyzdtr57845g5m/oN/zq047Z4eLuJ93nn6AqsPnWPu5h/fj/0jthJv0/83/9t8VcfwfqU2NA6DfgUfoW+CvAwshegvpoftq2iriX3+Z0KFd3RBF5bbjbF52gM3L8jv93vPfTD+MObYIXZeG+QBe+9k43kns6/Hdnzw1jj/8zMBPfDlkRBAa7lBb2cz7BR+i4RFu/fTf+MbX5noS+W9YUuPod+AR9G9KmAsh2kYCXbRN/B+5lUDzt9LtZBq9h0CPuJ9pMXDtcCH/4cOxpob2Be5Q3lygs5M+v/kL/fo/QsP0eb431s03o0bw9a0z9JEgF0K0gwS6aIOfcyc1jnvz3qFPCw+66Rx3qK0HBvRlqsv2vqx74gE09df5L09l82b1ZWpcXyipaeUi4Ff0PVDE1wkLaYz0udFCCOF33aFz1QnGEZo1jyidapP5Ipey30Z9B3vt8k0YYpyvq/etpPyI5/eiFm0iqoVjNU/DtI1TGFOXz+aXXbuAo15MJXVQJQeW5XNBva/WuU9bxshHvZhK6gATu1YXYT+jMvZuVZ3L0/ms5L97nCOn3A4YH89titAd3un5hISjEfcAACAASURBVKMN/GE67P3X60QteJCEYNv2kkJ+9Oc6l12nJj7Is2NUvWvVPlMTH+TZuBq2vHuDY26nUL9XXgcJA9zb8AAJwXDtsPqzfVmnbo/9W+Z/wcLcO4599MFgLbpDqwo+RDPhX7A+9nP6BNIcAiFEj9QrAl27fB5RXOTSmuZC1xb4tUcpWPOhsmnoIoyLNhGFEuqWrSspAGUMPT2E8rdfpPpKW1pj5UKhlTHxRqZNrFSFZQQjBsGtApMjYEe9OAb2HGCzfZ85Y1iRPIXZcw7w/p62nLslEczeNobgguNstl8wzBnDigVTANdQvzssDm6daba8MzW0L9TfYfSCBwkv+oIf5d6xhfwDrIuo49VKcIQr19nyr/bQHcBrPzPwTqISsHH6vlB3p0mYA8p7NkW1dyAmiDiw7duXdeMHgLp3bpvopikp5Efv1rlsq6pWhXdEX8LBdVuzdnJP4UIwPMA3SLlLCNG1esHfQeO4Tw/UVjTfg542jShdOYVbP3Ruu/I2N0ogdNSTfm9R5TYTpWgYPM45O505A4nGyrVzzt73hZfdesd7vqIUCA5Xfc5PIpYZibaY+G9173+PiXyLWzuZxzcD4N7C483+4YnT94XgAYQXqXq+lQ2o6wpTEw1KmKt736NDGEwzYTraoJrc1peoATjC/lj1HWVbhH3fB0gIvkPe/7vhDPgnbGGurhB4mvzW2oQ4N9++eRP6j+Bum8vu87hr0LX4ewohhDd6QQ/9HNXHphGVnkT860key+N9IkOAfhhe39T04+ZI+oCX5XRvVXKpDFINEUSglMFHDY+AsnzXAJ8YR+YCI/3dPn3Lr21RhIdoQGtk7jZj0zdDNOCI48F8494gj+o4kusM5qkjQ9A4JprZxqmDH+DZnz3As4697pD3+3O2HrzCWquE9TojXKu3hXalUha/dlZdvu+L3vbeuvEDoKTQeZyIAQxrsr/nyW+tT4jzl3k0/vRfsPY3o9n5CNoun4sghOjpekGgA0fepOAItjL6SEa8vgkop3DNm1gcO7m/7lgXDpqYsGAgoyYWUXlKKbeXHlKliD3My9Rj7bayeEc1yuI6zu7ZNb7d4hXFAEbHgDX/usuksjh9X6ivoQicAdvcOm/A3guvMinler3pOrXjH1RCOyKEwdSx1/7Zygas2AbRHb1z9554HUdczjWA747pCyXqdtonxF33aVY83OTbPgfyTvr8Zid9mEfjT89QWxdga/mFEJ2ud1X5rryNac1KCt6+SANR9J+mbG6sqAFCuK8z15afquSavZw9ZyDRFhOfqsfFo4Ppj5X8gx3eVQSgqsYK2mDCW91zJ9+ug68NUzyvwfY4Bu1aIvfNAF4b38B/fX6H8joIDx1g64GrZqFX3qEK9XvXXXr5nkxNfIDB2CsArjxta843YWFw62Y7/kfayT2FZhjwgH/WtAsheq3eFeh2g4IJ4jZ3ymyvjxyh3NyPqEWr0Lb4QaCsngb6oX94XDsboUyO62+IYNrwCG4VVrr2jEvruYWGkGj7BqV3Ht30QK1yD2v3u8uBfVw/gtSNcUQ0PYSLe74san7c2OMYtK1EbrL1mivr+LIeBo+/322pWdPPDJ5uILyojmMok980YwwkBNex12W2vLJ0TXnvDnnH6zwcbwCjRyv/psyQv8O1es9nVq9pn5r4YLM3rbGPf1N3vZf+jySE6E6+lfbEU/+4fqOSxkb/jhK3R2hYGLfq6rh7964fjvYkUa8nEeqy7baHWeoelrbhunTNYdoq4tOjnK99WramZg/pSrflY7Z33YK39NBxaiZOYXChc+mastTN07FbWP5Wls/mywNZkYzbeT1dNHhauvZz7qz6HreLm5aJPS41G23gD9P7kvf7L1Q9Z2VG+2C3VjvL8Pb369j7r7Ybw4w28IfpAzyW6n/y1DhmxbgvQWv6PgD119ny7h2++zMDuB/Ldg4HD0vtHOL/SG1qGJqd09u1Hv+b6Ye5Zbjk31vJCiF6nV4Q6KJD+CnMei7louZu3v9F29x6fC9JoAsh/EH+/hBtU/BDdMU6rPMO98I7pc2j8aff4/atMwS1M8zBvvTtERrj/dA0IUSvJYEu2uyePY8oof7Yz7u6KZ0r/kmsnPFfj7rgh/TPM3M79Qy1q85wR4JdCNEGUnIXQgghAoD00IUQQogAIIEuhBBCBAAJdCGEECIASKALIYQQAUACXQghhAgAEuhCCCFEAOgdT1vr7R7/dyanxjhfl+7jxK89PCrWT9xvWXurwHmr2s6QvfEscxjByNWt3plfdJSk5WTPiHW+LtlP1vZDHXe+CQb+8sxQtJYrbF9XwcRXp5KgtZL322M8f9q2zw/Gcmi66i5IZedJfrUDb3PoTZtQ/rzOuDmGia/d23FtaUHYQ+mM4hy5nzX/WwTFPcYjkdc5c/IqDZ3Yto4U9lA6oyIsFJ34lBK3LxUU9xiPGJx/fzQUfsqZoo5/FmdLbfKGBHpv8Mk/c+ITgDlErV1CTGv7t1PltuNsBjr8ca8eZK69ypzBUezJkDD3TTKLN6QR3UzwGjJeIjOhhoPrt5LrzeGObiXrKICRjBeW0OH3yjltpeYZ0NZZ2Y2V2Dpo8qSlD86T/AGAhjdenUpCd2gTkPVfBmY8m8+ptV0Q6kFDiIuwUHSipQubSOIMWm4WtC3MlZCyv2p7WAEQPo7E+EiwftmhFxcNRZ+SWwQQyajkcQR10Hn8TUruInDM/4o14+HkloFkdXVbepxDXC4BYkaS2OQ9Iw8bdVBy0bsw7zYs3Djd+l6dy0ObPglh4t4ogseXkPN457YmKPIBgqzXudlSMoZHEUYFFVW+Hz/soXRGab7kzKF95B7ax5lCiJv8GDE+J2Qko5LTSbz/FkWdV+zrcSTQRYCwsHdWOfVnY8j8pKvb0jPlXioGYhme5PaGcQIGHZRe6sCSuZ8V13a/v/VbbNN7A9lzrZZJC2rI7LQW2XreV1vq6WqJGRJJQ+GX3PT18OHjlPKxqmffUJRHkVVL3BBfHgChJWbSOCjY1+KwgK8aLBbASkM3GkNob5uk5O4zW9naUTor4XLWP1Oj3sV9zNpynvOvrea2y/twOesC4dnphNg23z6/g/Pv72nhXB6OBfSb/SfGjlXt1OYxcvfzWSh59/uUX23Dobw63RhWJKuevm4xsWt1ketz4SfGkbnASP8mH3Z75Ox8M0OIYk8zJUtDxktkGk3kvFJByoY0xyNiLXk7eG23ybmj+9gvxc4ys3EuaxcaKXznl6g/olBK1ny8ml8fbf2reytx6UZS2E/WpZGqdpkpaNIGW2nb8fhf9T4ttU35nMG0g9d2X6R0RizRI5LhqDO8DQlGtBRzUv3Zln6nLlFB5vKPHK927zjG7jYfK5KcrWNVQ1NNx72b7uNpX9/apJTeC5k9P4Sc9zztMY2Vb80gjhL2PreNjzzt4gtbz/tCSz3voEgiNRYqKnwfPw7SasC99x8USaQG0Cjn9u4iwULJyX0+n781zrJ6O9iHAOw8DQUEDeGRycM8lO0ruHDonMtv0N42SaD7ZCXDs9MJsZznfJY9VFcyfPFKamwBqoQrlLybagtCJSTHZv+7W/DHMDw7hJJ3U7l81f65/0XU+T2OAA1ZvIQY1OdqKmTxAYZHl3A56/u2YyttnLx2YJPg9+a79Tu/gxP2i4rH/53JC/4EHRDqysQ5yH/3gO1Z68oz2+duC3YGtS3MKTjOZpfnvzd9fnz26HIwGyhs6aS6BDI3QOnHq5Xx3aTlZM+YS0aeLfiMc1k74iJZ67faPqCEXcoLcyl9ZZft2Dr0gwD3QDdGosdMYVl7fxkPYtLI1ueRs34rhfbgzpjLXx1tUgJbn7eDLHvKJy0ne+FLoAp+fbjRQ8Nj0eugtsoEmLhckkZ0zEgSOWQLZ3u5/X+cYe3V79RD2Say8dkxkncof+Yylkxl6TMzyRn0EZkfgCPMVZPqMpZMZelDeAh+H3yi44sF8OD9XwMdPZau9LypPNdiqIYNGUaQ9cuWS/LNCNJqwWpxhlv4OBLj4UJBBaPiNQQFQU+eYadMnIOiE/tscwK0xEx6jEeS+zuD2hbmFH5Krm1SnTKnoGmY+4OU3H0QsjidEEq47BKUm7js6A2vJGasltvn/1MVgHso33Oe28QQ7jI+5tr7vX3exG20aKPs78+hnx6o/ar5UB6ykZhoqDmgvlDYxOUDJaA1EjLE++/Wb/ZjhFjOc1ldIfhkHyUWLeFj53h/IK9E8Fi8hlsF+bYwB7ByZI+JW0Qwwn666GD6Y+XaOWep8sLlSkBDxET18b5mUCjUX9aR0+J5zRS8o+qlltVgsQc0gGkXr7lMCDPxV5MZdCFKj95UQa3q3cSlG8lemqy8GBSClhoqm/Tc/cCcR44jKN3aBBgyHiXanMdudZf96H4KzDoMCUagmFqz8y1DxktkvzAXAzguRGptFyJNyu6eyu2t/U492PPTlVnpO3c4/8zt3pFHngVihtl6YhM0hAAlXzrLv7vzrmNBQ+gg2uFeyqoheLi5mbL7ETY99wLP+qN3but5F11teTJcZAStlOSboyXIudCFoLjHSBxyizMdEGJdQxmuaCjMU03ws1BS8CUNRBIZbtuk6U8QrhWOmzcqANsFjZ9JD91rtoAtveBaXlcbMpB+WKg6v8d1+9VTVFnGEh4+B9jj8aNN7aH8RDoxqelMzk73WGonKoR+lFDiPmb8yQVqUtOViwMve9b9QrWgHcvY7ANN3wz187z4iRqC3YIagFOVXJtjZHC4BrBCaT23iGDwOA2csvXQh0eAxcSFU+oP/o1wHV5wC1zTLl5bv8tlj8SlG0lp8nXt/8WVYDSEG4FYhscAqHqz5hpKvWmGn0WH6mzVBw/ztkNjgUNU1kJ8qFIif9ioA52Rh43YLhJUv8tR17K7x3I7rf1OPZWG+weApajCrTRu5VSRlYQ4DRnAbtvsdSXgbT30hAfQUsGnH3R+q9vCm553UNyw1kvyzbLQYPvf27Es7qT64qF7jV37LEjbJKgBaKigwjqMSK0WqixgvaUEfKSWEnsP/X5lln5bqh6tkUDvzuzLzYZsZOwCe9h6GLP3F08XDV3plJX6BRAdP4UV2+wbKzmwzG2cnfuoMkN4kwP4Rgkp1/FpZbmWfQ+TMxiNkehL9nOQNIYnQWl4CF0aaC69+KZKq81gjMQA6MnjYJ6RSQlGqApxW0l1SCm76yMxeCq3483vFOgsVFsgZtBYDtlHHbCS99vzvOGPw1f3aaXS1F62nneLy9C0hEUqPdC29qgbLBYwjCNOVW4G29g63W/SYodoUIYcwgyPkWiwb6zgwqGOWXInge61PdyuXQL6gfQDz6F39StuM5bwsXMov6rqiQ+ZSLgWbld52zt3P+5qzmfhCPbwx6HmE6C8Rjmf/bXd46MIwUJJufenuF1tgeiQ5r+bP52yUr9A49LzBmBiBIO1UF+lbItYZiTa00S5JpRS5aThZjIJaeNfhkYi9EDJ/3iY8OZUWm2GUGWiWO2lXeQykpQRyUSjg9qKLhk/Lq02Q4xS7m7u/IVVNWAEkkaiN+0nNw8mZUwgkRAwm1wqC7mXikmZYeThJJRy+wl1ed2736lnsnKjDhLiIsmgUNVL1zAxTgN1VmXbD4aSoK1g33I/BbiDfejoPr8etYkOngxn12BR/j92PYZyoUBlG2bNdycNFhrQuvS8AcekP2W2uq3K0cFr5tVkDN0HNYfOc1s7lrGLV6q2KpPiFJuoKoV+Y/8XUY7x6zlEzRlLP8v5pqVxX0WF0A8LFntQXz1FlQVCUv/dMVMeVjI8NQZKP/VpItvt9z+lhhiGr91Iv1b3Tmbxho1kb9jIYvclTl6p5FIZ9I8fwzTHWLiGaXOM9LeY+FR93aMN9qrnnfV5FOhqebzN63iV3jd6pRcL9l6nay2/sKoG9I+SkVDD5aMoJeqYR5mkB0t1sdsx7b/TS2QY29qu1hXu/h9KiSXFPi7uSVkNFp2RjMkhFOaZwHSaQhKYZKTphcjRi5SiI35GAlqKle/p4N3v5BPjXNZu2Ej2huUe1sB3rje+rADtUOYtcQ4AZyxJUO7wdlhdMtZy/wQ/n/xxMw/qoOpGcxPiprHyrVfY8tZ65g9v60m8W4YWNmQYQZVftv0GMABVXypL1OKHOGZ4B8UlENfq2H1PUEFFJQQZElRr6rXExCtDGUXqiyVN/067MY300H1xdTXns2yzyLPTbRuVErhdza9TOT/7T4xdcMC5pKVNy8hsM+pdtrkvI9tD+Wt7uL34AMNVY9+31TPV8bCsTWtvv/p4m7icBcOz093G0T0sXTNGom+h5cpMdNUGR8ncOTv9wssHqFo2hbkLUhmzwLZfWT6bX3b2xSu35ZO/cQqp21JJdTtH6aEDuKzwe0/H1VnlTPquBT5p213icrfvZ/iGNOdYtDmPnI9DyJyh2qmsBosuFq2jDK2UqFNioLTKvcuqjLlH63TEpySz29RR67gP8ev1sFjdduULOMvipgpqSSCaPP5qAvtEtvgEHRaT+4WIreweg8ebyXjzOzUJeV0a2RvS8LjkzjbZUEsskzKM5HZQ11+Zia6aqaW1l8xVS80+OE9ymYG/PDNVVU53641/cJ59w2aS/sxMDj3jeg7LZ8f43o62lZOzv1tIsNnAdo9L1gBKqK6HuGAdw8YPgcttWHriVc/bXpJvb+haKDn5KUx6jEeSh9m2tW12t/utWGGY45g3C/a1cZy/ea53twMcJXNn+29+to8zcY/xyOR04uz7VbreQrehKI+iyMcYlZyOu45o97fSnnjqH9dvVNLY2OjfI7dDaFgYt+rquHv3blc3RXShUS+mkjqgacm9uaVrzP+Ki7MaOLllSPe5uYxtvXaT9e7Chf0CoNTP6/g7gnJhYGlScm/X0jVv/+ymLGPLP8VQf/Y3vPifvge6485tLZSAlfC0dsiyqt6mud+7o5auSclddFMaIga0sN1ST5OLW/vdtp692um30PTMSMbkWKCYkxLmLUgmJUEH5jwOdvMwB4jVa1rY3obbzT5ewymv7nI4hPmPxQAlfNKGMPduGZp9MlwPH+PuFlyX7jXZbr3l93F16aGLbkx5uEuTtc1upXl33eFpa46Scyuzz3s7x/K3jn4am1/ZHu7i/sfLcoXt6wp9vkOdN09bm7niFWbFAvXn2fL//YEvfW2y6CLKw13C3DdXtvx0u7aSQBdCCCECgJTchRBCiAAggS6EEEIEAAl0IYQQIgBIoAshhBABQAJdCCGECAAS6EIIIUQAkEAXQgghAoDcy70NZsdOZFFcEFR9TlpLN+MNG83+0apHizQU8vbpYt5v43m7ww1TfGL7/iWfH2Gx3HaqbWy3jnVo7gYs87/iYuJ9vL6wrU+b82D+V1ycpTwJ6Ore8cxq9h7jQojuQAK9owTFssePYZa59ipzBkexJ6OHhHlvZQtgz/ckN5LxwhLia324K9rRrWQdVX22uf3eC+NkYj5r3gH8Eeq225FKkAvRc0jJvQ3eLz5F2tEjLfbOZ4ffj7ahkI/80TOd/xVrxsPJLQPJ8sPhRAc6epFSIHpEctP3jBOU54tf6ohbnN5L5sIRXNUVsnTt1+0+WubkWoLNBt6XMBeix5BA7yAxWn89AdfCXq8e3CC6h0NcLgFiRjZ5trchwejh+eL+pGXW3iiCx5d0k4fTCCE6k5TcfeAYO7exFJ1iTrG/n5fjZr6ZIUSxp5kHNxgyXiLTaCLnlQpSNqQ5HmTS5HGd7mOxFHNw/VblWdfGuaxdaKTQ/TnVACSzeEMatOWxlg1mLIS3vl+HU8rVBtMOdjNX9Zxu1W/g2HUuaxcm4BjYUD9cxdvf6VIxKTGxDE+CXMdvZuRhow4cz1FXNHlueHsf5mIrvbfnufBCiJ5JAt0H7xef4v1igHB+nTSaEPcd3CfBYWBRkoFFtldtGU/PHl0OZkPLf8HrEsjcAKUfr1bGW5OWkz1jLhl5tuAxzmXtiItkrd9q+4AScCkvzKXUER469IMA96AyRqLHTGGZb+3ujrQJS8gs2U/W+kPYAzhlaTK59vHspOVkzwih4J3VjsBOXLqRzBdQhawXv5PpIqUzYpWy+1Hbse3l9hOqcnvScjLYRdZ6+8GUNmUurWjHk8fu5ZPLeiYNbyQT/DdBTgjR7Umg+9PNz0mz9cieGzWNmZr2zWqHrxkUCvWXda38xWymQN1rLKvBQqwzeEy7eM0lgEz81WQmPiGEaKDQVEGt6t3EpRtJwTZxa1AIWmqobPPjvBuoaVLECOLVCRMZ28yohP3Cx70i4qK1FQYeD6yejHaIyyVpROsjMQCFtmeXW/J2uPS+cw/mMWmhkYeNvvxOtmPHjCSRQ+TiLLefVFc5jm7lNZcGurepbXJuBLFmfC2PPx5CTpuGab7m8eG11F+OkQsCIXoQCfRu7W+E61rfC/fANe3itfW7XPZwPHfa7XOKYmrNYAg3ArEMjwFwhhHmGkrb0vxmNbDu9JFW93JWRDpDLHqd0ovPTmj6rnJx5P3vlOtSdvdcbnfMXHf/b2z281fz2tfkvJPPJJ2ek1vGM1HmbAjRo0igd2v3UWWm3aPQSpi79uKVsVv7HiYqayE+NFYpHZfs5yBpDE+C0vAQnMEf+JrMPXDhw+90VCm768ONnsvtjjB3HcdPXLqRFL0/vkkQZT4H8r1kLhyPEuxnufjdHnTPAyGEBHr3di9l1TBpuJlM2rq22EiEHij5Hw8TuZxKq80QqpSGay/tIpeRpIxIJhod1Fa0rfzbUMyco5662F1Ucm+R0vuODo2l6QC5k/e/k1I+TzFOIBEP5XZbRcCSt9+t195+mfc3gFnf9ol1Mg4vRI8kgd7NZX0exZxZ7RkPVXqVqMZlnTOrnT3KwqoaMD5KRkwNJ9cDXKR0xqNMMoPF1La6tz2Qm64G6I4ldxO7TxQTPyONtRnFzfbSffmdci8VkzIjgZQEPJTbm15AOIZF2lVyV8a/qY6UIBail5FA98Fzo6YxU13/jpvI/jiAKj46+jlvdcRJ39NxdVZ5u5Yh5W7fz/ANaWRusNXYzXnkfBxC5gzVTmU1WHSxaB3BY+thxkBpVZtnxPUsR7eSxXKyZ7iNo6uXkvnyO9nK7tF4upmMid278zAsTCN7Q5qyqWQ/OXmPkml07tVkWZvOvr/bREi7+TeVMfB3pVQuRG/zrbQnnvrH9RuVNDY2dnVbHELDwrhVV8fdu3e7uindw/yvuDirgZNbhsjNZUQLLOzdfYnws2OY2Mx9C7yVufYqa4br/XtveCFEh5I7xfUE7w1kz7VaJj17Ve4AJprxNTnvXGKI2cD2doY5KEvf0BUye74fmiaE6BQS6D1E1urxSqh/19LVTRHd0fybTMLgvx71ewN5/ayeIbPOcnH3WfZKsAvR7UnJXQghhAgA0kMXQgghAoAEuhBCCBEAJNCFEEKIACCB7qXQsDDuuUeW7QshhOieJNCFEEKIACCBLoQQQgQACXQhhBAiAMigsBB2ScvJnhHrfF2yn6zt7vdgF0KI7kl66KLnSlpO9oaNLE7y9KaRjBc2kr002fvjHd1K1vrVZK3fQUG7nngmhBCdTwJd9FxHL1IKRI/wENrGCRh0np5yJoQQgUkCXfRgh7hcAsSMJNHtHUOCES3FXD7aFe0SQojOJ2PoXSKZxRvS4OPVHAxXP++6mIPrt9qesw1K2XgJ8arHYVvydvCa7SHYiUs3koLncV5DxktkGk3O53h3GqXNBtMOdjO3he8GGOeydmECjid3q587bpzL2oVGCj0981v1+/36UjEpMbEMT4JcR3gbedioA8czyxVNni2uPp/PprHyrRnEUcLe57bxUZuOIYQQ/iOB3oWiZ2wk05xHzvpdFNqCMGVpMrm2gE5cOhd2rybLHmhJy8mesYTFVav5tT289JEYoEkoRYfqoLaik8PcSZuwhMyS/WStP4Q9gNXfTfkuIRS8s9oR2IlLN5L5AqqQ1aEfBLgHujESPWYKywDTRUpnxCpl96O2Y9vL7SdUFzpJy8lgF1nr7QdT2pS5tEImvgkhAoIEeldymUVtorIWl4DO3f5L1/2PKuGlDzcCJkqrzaC3vefSozUSoQeLqdjrpsyOnciiuCDPb1Z9TtqFKp++mut3O8TlkjSiHd/NSMbkWCx5O1x637kH85i00MjDRig0VVCrOpxLNWJQCFpqqDSpjh0zkkQOkYuz3H5SXW4/upXXXBro3iZfHWHTc0d8/pQQQnQUCfQuZKl2Ddzc7atbLknbP2f7Z2FVDSSEEA2QYESLDkOC0dGjra1qUqtu1vvFp3jf+/xvp1j0OqUXn53Q9F2lV15MrRkM4UYgluExAM7QxlxDqW3/XJeyu+dyu6fhCwBkNrsQIkBIoHdX9jB36ekqZWJ7p5yyGiwYiTACoVDwcR6GyRMwUIHePbi6IfV8gKaUikV8aKxSYi/Zz0HSGJ4EpeEhQI1zV3XlwlO53RHmruP4iUs3kqJHCCECggR6dzUoBC1mCg62ML5rqqAWI5DMcL2Jg0dPw+S5PJyEc4zZS34vubdI6X1Hh8bSdIDcqbTaDKFKCb320i5yGUnKiGSicZ8foJTPU4wTSMRDud1WEbDk7XfrtQshROCQQO+uymqwEKuaFKb0zqNxltyVYEzDkPEomHZRiAlMkDnZiMUxxuydzi25m9h9opj4GWmszShutpdeWFUDxkfJiKnh5HqAi5TOeJRJ5qbzA3IvFZMyI4GUBDyU25teQCQu3UhKDO0oudtnuZs5u30D711u63GEEMI/JNC7K9MuducZyZyxkewZyqbSj3dQMHkJBudOSlk6BgrylKAqzDNhSUhAazY5xpi7paNbyUKZte8yjq5eSlZWg0UXi9YR0LaeeAyUus8PsJXdo/F0MxkTu3fnYViYRvaGNGVTyX5y8h4l0+jcq8myNp19fzMFTZbPlVBdD3HBTQ92egAAENxJREFUOoaNHwKXr7bjxxBCiPb7VtoTT/3j+o1KGhsbu7otDqFhYdyqq+Pu3btd3RSH7tgm0cVSlrHln2KoP/sbXvxPCXQhRNeSO8UJ0SZDmP9YDFDCJxLmQohuQEruQvho5opXmBUL1J9ny3N/4MuubpAQQiCBLoTPPtr8gtzqVQjR7UjJXQghhAgAEuhCCCFEAJBAF0IIIQKABLoQQggRACTQhRBCiAAggS6EEEIEAAl0IYQQIgDIOvQAEbFsCnPjNVCWz+aXK7u6Ob7TrOJ3k4dy8cRSfmntqkZEkrN1LDFUsG/5eVg3k/RBUHL4IzI/8P/ZMpZMZelDGsdry2fH+N6Ojvvy9vNZPjvG9/Ii+cszQ9FarrB9XSG7HXtN5qXJywi5+gwreuAfIyF6M+mhdxkN0zamsuLFiK5uSDfwYzZPHgNX3+vCMAewUG0BLPUUA8W1HduY3TuOkbz8I5KXn6ekQ89kO1+V8py+miornLaqnyivcoJfXi3GEP9bNssfTSF6FAn0AFG57Tiblx3ogb3zybw0OR1DxT5+XHSiqxvjgZVqH54r3+PUWVW9c5vKLN682oAhPpuFXdEmIUSbSKCLLpUYN5/xmmL+/NnvuropTdh7tIHJVo1oRm7Re5y1xvLUQz/uvCYJIdpFHp/qJb+1aWIcmQuM9G/m7dJDB3h/Dygl+SkMLjxOTpWRFcn2+qeV/HePc+SU8soxdm5zq+A4Odualord93NQj7k327ZKDizL54Lt1agXU0kd5KnNqnMZvmLXaiuPbRtDdLNtU8ZrR97Y1kzvPJnFG9Lg49UcDFc/q7yYg+u32p6R3pk0vPHqVBLqzpP8aoXLO8+vm0n6IGXs/Q31vlrnPs2PkStj9yEe3n9+3UzSB7iOcytj4RbVuTydz0reb4/x/Ol2fN2IbD6MD+dsc/MabI+Ppfhjnt18pB0nEkL4g0yK62ynisg5VYQ9sMfUtTyJrX/8FFZQyYFlB7iALUznxHHhVBGV2ErtAEQwe9sYgj0cQwlzyH/3gO1CQNk32kOYU3CczbbQVYJbHeaqNi9Tfy6V2biGOlojc7cpYb95DzBnDCuSxzBtovNiBM0URmqgwtpyqT16xkYyzXnkrN9FIUYyXlhCytJkcrcfavFz/mflVJGVhIeG8saEClVYRjJqEFg+u+II2OfXJcAHH5Fs3+cHYzk0fSo5P+iICXbOC4Jk+wXBD8Zy6JmpvEE7Qr3yCwpJJ0QDdOncBiGEN6Tk3t1ZTOxS9Y6raqygDSbch0OEh2jA8hUX7EFKJZfKgAEaHPOeooPpj5Vr55x/c1+4XAloiJho2zDHyBhtJQfUFyCnijhdBtHD3WdQWcl/VxXypfXcQkNItGoXzQA0FFPQ2rB/yX6yXtlFIQAmKmsBfSQGb768n+3ecYUSNAxNUFU7fjCQGKxcyXP+dm+86hakH3xFCRAS7qFK0k4ZS4YSY7nCTnXv/oMr5Fnc2umza9RYwRDZTNn94Daefe4F6Z0L0U1ID727q7Oizjtnj9x7VTVWGDSQUROLqLT10EcMglsFlc5jl9ZziwgGj9PAKVsPfXgEWEyOC4GIcA2gIXVbKqnuJ7EoFwfOtlpt57JxVCacEjXhQFWr7bdUF7u8zt2+ugvK7XYVXCiD9LhIMlDK4M8Pi4Sy864BPsGgLAtz+3RHjMrH6jWgHcrSrUNZ6v6mXot0r4XoHSTQe4HKKisQwZgFqYxZYNtYlu8orQNwykr9AoiOn8KKbY5PcmBZEa4daNfx9PbItVaxyg/H6WxvHL7CY888wMQJhew+rZTbSw6rxtTtYV6mHmu3lcU7qlFN1pP7j9VyrQOOKoTwNwn0gKdh2sSIZifL2UUsMxJtMbFrtXuAOykXBkoJ/sKpZnbyhbUOK2OId+3ad3+nK7jyg6FKOXvQQGIsV9iuHhcfFIwWK3mHK5o9hD8V11phUDCxfj/yYEK8mOMghOgeZAy9y1iprEMphXfC2fqHeDGW2trY/B4T+RYNYxaM8U+brce52NIYrU+SWbxhI9kbXiLD6IfDtUiZHKeNi+SNYZFYiipce8Zl9VjQEOpYCWC/A53vimuVORP2sHa/uxzYx/UjSX/VQEYbztGsiAcx0EBNc9eBKcvY8tYrbPk/P2KYP88rhGgT6aF3oQsvHydi4xSXMWn3JWCtcV9ChqNkbi+NWzmyx8TgBWNUpXQ7Z/m8cls++W5tsXO2ycqR1cfBw36+tltxgtwb8xk/JJGXCn/XzrvEFVNrhmidjviU/7+9e41t8rrjOP7rBExyLi2XkNGt8RIzLiUtIAWyaBQIpUlAjFUiWUU7FYEKZVIrQRlqC2XSiMaliHUTaFwFSgWdJoNUMSbCRgul28LFUyhKYTAITegFk5CU2LGmELV7EScxCQHHsfM8Pv5+3iA9fuLzj3jxy/+c5zznabmvxPYJePeO/2r21gmamOzVkQ1dCj9TrX0TH9XSGYX6YEbbpdoP/6HKyVP0o5DbfhV8tWyHJ6bog62S1Ln9zb2jUrkbpmjW1kLNkqTPz+npD0d0fG8brxa+ck57t07oso7el61refq1yyl5j/T8/3K9QU3KUGqqS3mjpcuXIhkHQLSwDz1MdqwpPMHtbN2m3O/eujZu9TN65pHuU+7dt65FW9te9Bz/Ec3t68tlpr+i0gKn/JU7tNF9JTrlJahpmdu1wlWn94+t0Z773Fe4bL3mOH3ybF+nMgIdsBRT7qbLTbrn3vT267cbguvij9zrpuB1f1MYz6JHqkJrz3+i5vRZOtSnt5KNVEmeU1KNThHmfTO8VCtcDlWfv3+Ya/RzmuqUVFNBmAM2QIceJjvWFLbi8SFvmut09zR5sGPvelN/nd7Wh9PWskqCb5HzVWpvx351RCac09by9do7BcqU1OTZrdX7r/ZjfQB6QqCHyY41AQDQjil3AAAMQKADAGAAAh0AAAOwDz1Mt+rrrS4BAIAe0aEDAGAAAh0AAAMQ6AAAGIA19N5Y8JUuzvlCknT1cI7mlFlcDwAAQXTovVE2QmNLcjT28PflmnNVe6daXRAAAG0I9EiUDdMpX6Mez7tjdSUAAEgi0AEAMAKBDgCAAQh0AAAMQKBHZKBOXhqs1Jx6lVpdCgAAItAjtnejS2O3fFcFbo8u7mnQQqsLAgAkNPahR6h0k0fFQ7P0dkmO9lpdDAAg4dGhR+SOfjBUarqUQpgDAGyBQAcAwAAEOgAABiDQAQAwAIEeiak+PZ4i1d0YaHUlAABI4in33gk5ba3JM57T1gAAtkGg90bZCI0tG2F1FQAAdMOUOwAABiDQAQAwAIEOAIABCHQAAAxAoAMAYAACHQAAAyTEtrXW4rPyOSXpmlI2/zwxfmkAQEJJiA59wIFJGrx5klJqMuV76Y/6xuqCAACIsoQI9HYDPj6rgQ+PUWu61ZUAABBdCRXoAACYikAHAMAABDoAAAZIrED3/kuDbqeo+am3rK4EAICoSqxA1z4N2j1JDzfMUOOKs/LP+IXVBQEAEBUJtiX7Lf1vxc/UWvkHDd68z+piAACImsTq0NMfVat8GvQpYQ4AMEuCdegPNm3pJs3MkPyVO7TRfcXqcgAACEtidehhuH7LJ0lKnlikaRbXAgBAuAj0Lqrd/9R1SfI1tP0LAEAcSKhA/2bcGN1Rvb7j7fmerJKf6DFJ1yveU3W/VQYAQN8kxBp652lrPiXt6+G0tZHP6/VFE5Usn87vWSmWzwEA8eShotnPfvvljZtqaWmxupYOQ4cN0+2vv1Zra6vVpQAAEBcSasodAABTEegAABiAQAcAwAC2fCjuVn291SUAABBX6NABADAAgQ4AgAEIdAAADGDLNXRJUtIK/SlvvJIkNV/dpvnXKqyuCAAA27Jvh968WfOPvai5FZ9Irl/q98OtLggAAPuyb6C3a96sv3ulrPT5VlcCAIBt2T/QAQDAA9l3Db1X8vXaOwXKVK0OL9+mo1aXAwBAP6NDBwDAALY8ba2b4aU69GSaPBVLtbbZ6mIAALCf+OjQb67R3GMfaUjeuzo0s1SLrK4HAACbiYs19GmZ27XCVaf3j72oZVYXAwCADcVFh+5KdkjeC9pjdSEAANhUXHToD9b+lLtPnu3rVHbJ6noAAOhfcdGhP1itbjVJUopG5bisLgYAgH5nSKBfVdnHtVYXAQCAZeIg0OfryXSp2f/Zfe5xacFTGZJqdXL/1f4qDAAA27DvGnrIaWvyHtHcHk5bK1y2XnOckprOacvyP+tyf9YIAIBNxMeLZQAAwH3FwZQ7AAB4EAIdAAADEOgAABiAQAcAwAAEOgAABiDQAQAwAIEOAIABCHQAAAyQMIG+fFy+yic7Nc/qQgAAiIGECXQAAExGoAMAYAD7vst9WLbKs6WjJ6qVPjlXExzB63VVKvq0LuRGhzaEfq6Azp05rTcCkpSmndOzldHDEP5rp1VcE5AcTh2YnKWGquNaUt/+advPDmm/R9I8Z64Wp9/QrjMBFYZ8rz/knuXj8lWoKhV501WenXaPmsI1UiVvvqysKzu0sa5IpQXO4HWfzu9ZK/eVu+8e9cIqvZqToibPbq3mxDkASDj2PW1NkpSmwulp8l87raKO4M3WzmHtwdsZukXBQNWwbJVPztWGM6f1RqBOS04clxQM2qRq7TpTo4N9KcmRpcXTpdqq4yqqD46X/YQ21IUEdlq2ypOqtetElQ62/8GR7dS8CMZOnviySlWjY6tW6iNJ05Zu0syS5/Xv9e+pui+/BwDAKDYP9Lbg7OiaAwE1SBqS5JDqA5rnzFJGoFq7akJa3/pqnQvkamSaQ6rpVUscpi7ddsAnv9I0xCGp41roHw4BnfUGNCEzpceZgvvyVWpvSHhfv+WTMoboMemuQL+8f51e3R/JAAAAE9g80ANquCuTOztuScpIdgQ75iwt7vqjyUnqTNhoapY39GsDNSo+URODcYIavXcFd7V7rda4YzccACA+2TzQwxCIwjQ6AABxLq6fcq/1ByRHhFPZAAAYJK4D/WBNtWqVpsIwXhjTFv7f0yTHPT4MXZuX9KCn4+1o1AurtOWd9dqyLN/qUgAAFojzKfc6LTlRpZ3Ts7uso3ffJnaw5rQykvNVODlf5cFrndvN6rSkqk7l2bkqz+z8+YbsXI3sx9+mLy57GyWlSM4xKtRxHbW6IABAv7LvPnT0kksLfvOSclJrdXj5NgIdABJMXE+5I8TMAuWkSk2evxHmAJCA4nzKHRr9nH67dIJSJV3765v63TGrCwIAWIEpdwAADMCUOwAABiDQAQAwAIEOAIABCHQAAAxAoAMAYAACHQAAAxDoAAAYIOqBXrrJo4tujy66v1JptL8cAADcU9QDfc3KHI0tydGBz75Q8Z4GLYz2AAAAoJuYTbmv+UuWmlIaNXVqrEYAAADtWEMHAMAABDoAAAYg0AEAMEDsAv1kii74GvXjn/pjNgQAAGgTww59oBYuytHb9V5ddHt0+vU7sRsKAIAENyB2X+3XYfd/lOYZr7ElrtgNAwAAYtihT21RmgbrQsXAmA0BAADa8FAcAAAGINABADAAgQ4AgAFiFugL8xqVKoc+PxmrEQAAQLuoP+Veusmj4h9K0mCd2jJCa6I9AAAA6OahotnPfvvljZtqaWmxuhYAABAh1tABADAAgQ4AgAEIdAAADECgAwBgAAIdAAADEOgAABiAQAcAwAAEOgAABiDQAQAwAIEOAIABCHQAAAxAoAMAYAACHQAAAxDoAAAYgEAHAMAABDoAAAb4P+jjd4j7IVxOAAAAAElFTkSuQmCC;" vertex="1" parent="1">
                    <mxGeometry x="50" y="50" width="500" height="392" as="geometry"/>
                </mxCell>
            </root>
        </mxGraphModel>
    </diagram>
</mxfile>